{"glyphs":{":":{"x_min":0,"x_max":276,"ha":276,"o":"m 216 386 q 216 365 212 352 q 209 338 201 329 q 193 320 180 317 q 167 313 146 313 q 126 313 113 317 q 100 320 92 329 q 84 338 81 352 q 78 365 78 386 q 78 407 81 421 q 84 435 92 444 q 100 453 113 457 q 126 460 146 460 q 167 460 180 457 q 193 453 201 444 q 209 435 212 421 q 216 407 216 386 z m 216 67 q 216 46 212 32 q 209 19 201 10 q 193 1 180 -3 q 167 -6 146 -6 q 126 -6 113 -3 q 100 1 92 10 q 84 19 81 32 q 78 46 78 67 q 78 87 81 102 q 84 116 92 125 q 100 134 113 137 q 126 141 146 141 q 167 141 180 137 q 193 134 201 125 q 209 116 212 102 q 216 87 216 67 z"},"$":{"x_min":0,"x_max":507,"ha":507,"o":""},"?":{"x_min":0,"x_max":463,"ha":463,"o":"m 423 482 q 423 442 411 410 q 400 378 379 354 q 358 331 329 317 q 300 303 265 299 l 261 204 q 261 195 247 190 q 234 186 208 186 q 192 186 181 187 q 170 188 164 189 q 158 191 155 195 q 152 198 151 204 l 147 319 q 146 334 148 344 q 150 354 156 360 q 161 366 168 368 q 176 370 187 370 l 194 370 q 220 370 239 378 q 257 387 270 400 q 282 414 287 433 q 293 451 293 472 q 293 496 286 515 q 280 535 266 549 q 253 563 233 571 q 212 578 185 578 q 160 578 141 573 q 122 568 108 562 q 95 557 86 552 q 77 547 72 547 q 68 547 65 549 q 62 551 61 557 q 59 563 57 574 q 56 584 56 601 q 56 618 58 626 q 59 634 64 639 q 69 644 83 650 q 96 657 115 662 q 134 668 158 672 q 181 676 207 676 q 264 676 305 660 q 346 644 372 617 q 398 590 411 556 q 423 521 423 482 z m 278 64 q 278 44 275 30 q 272 17 264 8 q 256 0 242 -4 q 229 -7 209 -7 q 189 -7 176 -4 q 163 0 155 8 q 146 17 143 30 q 140 44 140 64 q 140 84 143 98 q 146 112 155 121 q 163 129 176 133 q 189 137 209 137 q 229 137 242 133 q 256 129 264 121 q 272 112 275 98 q 278 84 278 64 z"},"<":{"x_min":0,"x_max":498,"ha":498,"o":"m 447 85 q 447 67 445 57 q 444 46 441 42 q 438 38 433 38 q 428 39 421 42 l 46 229 q 40 232 36 245 q 33 257 33 282 q 33 295 34 304 q 35 314 37 320 q 38 326 41 330 q 43 333 47 335 l 421 521 q 435 528 441 518 q 447 509 447 479 q 447 459 446 448 q 445 436 443 429 q 441 422 438 419 q 435 417 429 414 l 147 282 l 423 154 q 431 150 435 147 q 440 144 442 136 q 445 129 446 117 q 447 105 447 85 z"},"'":{"x_min":0,"x_max":233,"ha":233,"o":"m 162 444 q 162 439 160 435 q 157 431 152 429 q 146 426 138 425 q 129 424 117 424 q 104 424 95 425 q 86 427 81 429 q 76 432 73 436 q 71 439 71 444 l 60 663 q 59 667 62 671 q 65 675 72 678 q 79 681 90 682 q 101 683 117 683 q 133 683 144 682 q 154 681 161 678 q 168 676 171 672 q 174 668 173 663 z"},"=":{"x_min":0,"x_max":498,"ha":498,"o":"m 456 380 q 456 354 450 344 q 445 333 435 333 l 62 333 q 52 333 46 344 q 41 354 41 380 q 41 405 46 416 q 51 427 62 427 l 435 427 q 446 427 451 416 q 456 405 456 380 z m 456 183 q 456 157 450 146 q 445 136 435 136 l 62 136 q 52 136 46 146 q 41 157 41 183 q 41 208 46 219 q 51 230 62 230 l 435 230 q 446 230 451 219 q 456 208 456 183 z"},"a":{"x_min":0,"x_max":494,"ha":494,"o":"m 433 15 q 433 8 428 4 q 423 0 412 -1 q 402 -3 381 -3 q 359 -3 349 -1 q 339 0 335 4 q 331 8 331 15 l 331 50 q 304 21 270 5 q 235 -11 193 -11 q 159 -11 130 -2 q 101 7 79 25 q 58 42 46 69 q 35 95 35 130 q 35 168 50 197 q 64 225 94 243 q 124 261 167 270 q 211 279 270 279 l 312 279 l 312 305 q 312 326 308 341 q 304 356 294 367 q 285 377 269 382 q 253 387 229 387 q 199 387 175 380 q 150 373 132 365 q 113 356 101 350 q 88 343 81 343 q 75 343 71 346 q 67 350 64 356 q 62 362 60 372 q 59 381 59 392 q 59 407 61 416 q 63 425 70 432 q 77 439 94 448 q 111 456 134 463 q 157 471 184 475 q 211 480 240 480 q 292 480 328 470 q 364 460 388 439 q 411 418 422 386 q 433 353 433 308 z m 312 202 l 265 202 q 235 202 214 197 q 193 193 180 184 q 167 175 161 163 q 155 150 155 134 q 155 107 172 91 q 189 76 220 76 q 246 76 268 89 q 290 102 312 127 z"},"L":{"x_min":0,"x_max":423,"ha":423,"o":"m 416 54 q 416 39 415 29 q 414 19 411 12 q 409 6 405 3 q 401 0 396 0 l 107 0 q 91 0 80 10 q 69 19 69 41 l 69 614 q 69 619 72 623 q 75 627 83 629 q 90 632 102 633 q 115 635 133 635 q 152 635 165 633 q 177 632 184 629 q 191 627 195 623 q 198 619 198 614 l 198 106 l 396 106 q 401 106 405 103 q 409 101 411 94 q 414 88 415 78 q 416 68 416 54 z"},"3":{"x_min":0,"x_max":507,"ha":507,"o":"m 464 185 q 464 138 446 101 q 428 64 396 40 q 363 15 318 2 q 273 -11 220 -11 q 188 -11 160 -7 q 131 -2 110 5 q 88 12 74 19 q 60 26 55 30 q 51 34 49 39 q 46 44 45 51 q 43 57 42 67 q 42 77 42 91 q 42 115 45 124 q 49 133 57 133 q 62 133 74 126 q 86 120 104 112 q 123 104 148 98 q 173 91 205 91 q 231 91 252 98 q 272 104 287 115 q 301 127 308 143 q 315 160 315 180 q 315 202 307 219 q 298 237 281 249 q 265 262 239 269 q 213 275 179 275 l 124 275 q 118 275 113 277 q 109 279 106 284 q 103 290 102 299 q 101 309 101 324 q 101 338 102 347 q 103 356 106 361 q 108 366 113 368 q 117 370 123 370 l 178 370 q 206 370 228 376 q 250 383 265 395 q 280 407 288 425 q 295 442 295 463 q 295 479 290 493 q 285 508 274 518 q 264 529 247 535 q 230 541 208 541 q 183 541 160 533 q 138 526 120 517 q 102 508 90 500 q 77 492 71 492 q 67 492 64 494 q 62 496 60 500 q 58 505 57 515 q 56 524 56 539 q 56 551 56 559 q 57 567 58 572 q 60 578 62 582 q 64 585 69 590 q 74 595 89 604 q 104 613 127 622 q 150 631 180 637 q 210 643 245 643 q 291 643 326 632 q 362 622 386 601 q 410 581 423 552 q 435 522 435 485 q 435 456 428 431 q 420 406 406 387 q 392 367 371 354 q 350 340 322 333 l 322 332 q 355 328 381 315 q 408 302 426 282 q 444 263 454 238 q 464 213 464 185 z"},";":{"x_min":0,"x_max":276,"ha":276,"o":"m 216 386 q 216 365 212 352 q 209 338 201 329 q 193 320 180 317 q 167 313 146 313 q 126 313 113 317 q 100 320 92 329 q 84 338 81 352 q 78 365 78 386 q 78 407 81 421 q 84 435 92 444 q 100 453 113 457 q 126 460 146 460 q 167 460 180 457 q 193 453 201 444 q 209 435 212 421 q 216 407 216 386 z m 216 90 q 216 70 214 54 q 212 39 208 24 q 204 10 197 -3 q 190 -17 180 -31 l 117 -123 q 113 -127 109 -131 q 105 -134 99 -136 q 93 -139 85 -140 q 77 -141 65 -141 q 51 -141 43 -140 q 35 -139 31 -136 q 27 -133 27 -129 q 26 -125 29 -120 l 86 13 l 86 90 q 86 106 90 117 q 94 127 102 132 q 110 138 123 139 q 135 141 152 141 q 169 141 181 139 q 193 138 201 132 q 208 127 212 117 q 216 106 216 90 z"},"J":{"x_min":0,"x_max":331,"ha":331,"o":"m 263 176 q 263 133 255 98 q 247 64 228 40 q 208 16 177 3 q 146 -10 100 -10 q 85 -10 71 -8 q 57 -5 45 -2 q 33 1 24 5 q 15 9 12 12 q 9 16 7 19 q 5 22 4 28 q 2 34 2 42 q 1 50 1 63 q 1 80 2 91 q 3 103 5 109 q 6 116 10 118 q 13 121 18 121 q 22 121 28 118 q 34 115 41 111 q 48 108 58 105 q 68 102 81 102 q 94 102 104 105 q 114 109 121 118 q 127 127 131 142 q 134 157 134 181 l 134 615 q 134 620 137 624 q 141 627 148 630 q 155 632 167 634 q 180 635 199 635 q 217 635 229 634 q 242 632 249 630 q 257 627 260 624 q 263 620 263 615 z"},"V":{"x_min":0,"x_max":591,"ha":591,"o":"m 383 22 q 381 14 377 9 q 373 4 364 1 q 355 -1 340 -2 q 325 -3 301 -3 q 281 -3 267 -3 q 253 -2 244 -1 q 234 0 228 1 q 222 3 218 6 q 213 9 211 13 q 209 18 207 24 l 19 584 q 13 602 12 612 q 11 622 17 627 q 23 632 38 634 q 52 635 79 635 q 101 635 114 634 q 126 633 133 630 q 140 628 143 623 q 146 618 148 611 l 302 124 l 302 124 l 453 608 q 455 617 458 622 q 461 627 468 630 q 475 633 488 634 q 501 635 524 635 q 547 635 559 633 q 572 632 576 626 q 581 621 579 610 q 578 600 572 583 z"},"\"":{"x_min":0,"x_max":438,"ha":438,"o":"m 345 444 q 345 439 343 436 q 341 432 336 429 q 331 427 322 425 q 314 424 301 424 q 288 424 280 425 q 271 427 266 429 q 261 432 259 436 q 257 439 257 444 l 245 663 q 245 667 248 671 q 251 675 258 678 q 264 681 275 682 q 286 683 301 683 q 317 683 328 682 q 338 681 345 678 q 352 675 354 671 q 356 667 356 663 z m 159 444 q 159 439 157 436 q 155 432 150 429 q 145 427 136 425 q 128 424 115 424 q 102 424 94 425 q 85 427 80 429 q 75 432 73 436 q 71 439 71 444 l 60 663 q 59 667 62 671 q 65 675 72 678 q 78 681 89 682 q 100 683 115 683 q 147 683 159 678 q 171 673 171 663 z"},"7":{"x_min":0,"x_max":507,"ha":507,"o":"m 466 578 q 466 563 465 553 q 464 542 463 533 q 461 524 458 516 q 455 508 451 499 l 243 17 q 240 11 236 7 q 231 3 223 1 q 214 -1 201 -2 q 188 -3 169 -3 q 144 -3 128 -1 q 113 0 106 4 q 99 8 99 13 q 98 19 102 27 l 326 521 l 60 521 q 50 521 45 534 q 40 547 40 577 q 40 591 41 602 q 42 612 45 619 q 48 626 52 629 q 55 632 60 632 l 436 632 q 444 632 450 630 q 456 628 459 623 q 463 617 465 606 q 466 595 466 578 z"},"S":{"x_min":0,"x_max":473,"ha":473,"o":"m 443 189 q 443 140 425 102 q 406 64 375 39 q 343 14 300 1 q 258 -11 209 -11 q 177 -11 149 -6 q 121 0 99 7 q 78 15 63 23 q 49 31 42 38 q 36 44 33 56 q 31 68 31 90 q 31 105 32 116 q 33 126 35 132 q 37 139 41 141 q 44 144 49 144 q 56 144 69 136 q 81 128 101 118 q 120 108 147 100 q 174 92 210 92 q 233 92 252 98 q 271 104 283 114 q 296 124 303 139 q 310 154 310 173 q 310 194 298 210 q 287 225 268 237 q 249 249 225 260 q 201 270 176 282 q 150 293 126 308 q 103 323 84 344 q 65 365 53 393 q 42 421 42 461 q 42 506 58 541 q 75 575 104 598 q 132 621 171 632 q 210 643 253 643 q 276 643 298 640 q 321 636 340 630 q 360 625 375 617 q 390 610 395 605 q 400 600 402 597 q 403 593 405 588 q 406 582 406 573 q 407 565 407 552 q 407 538 406 528 q 405 519 404 512 q 402 506 399 503 q 396 500 390 500 q 385 500 373 507 q 361 514 344 522 q 327 530 305 536 q 282 543 255 543 q 234 543 219 538 q 203 533 193 524 q 182 515 177 502 q 172 489 172 475 q 172 454 183 439 q 195 423 214 411 q 233 399 258 389 q 282 378 308 367 q 333 355 357 340 q 382 325 401 304 q 420 284 432 256 q 443 228 443 189 z"},"}":{"x_min":0,"x_max":344,"ha":344,"o":"m 334 280 q 334 267 333 258 q 332 249 330 244 q 328 238 324 236 q 321 233 316 233 q 298 230 285 219 q 271 207 263 189 q 254 171 250 149 q 246 127 246 94 l 246 31 q 246 -24 240 -59 q 234 -94 219 -118 q 203 -141 178 -153 q 152 -166 114 -166 q 102 -166 92 -164 q 82 -163 69 -161 q 65 -160 62 -157 q 59 -155 57 -150 q 54 -145 53 -137 q 51 -129 51 -116 q 51 -104 53 -95 q 54 -87 57 -82 q 60 -76 63 -74 q 67 -72 71 -71 l 89 -71 q 102 -71 110 -67 q 118 -62 123 -52 q 128 -42 130 -23 q 132 -5 132 32 l 132 93 q 132 130 138 159 q 143 188 155 212 q 167 237 186 255 q 205 273 233 280 q 205 286 186 297 q 167 309 155 325 q 143 342 138 364 q 132 386 132 423 l 132 505 q 132 542 130 560 q 128 578 124 588 q 119 599 112 603 q 104 607 94 608 l 76 608 q 69 608 64 611 q 59 613 56 618 q 53 623 52 631 q 51 640 51 653 q 51 665 52 674 q 54 682 56 687 q 59 692 62 694 q 66 697 70 697 q 82 700 92 701 q 102 702 114 702 q 153 702 178 690 q 204 678 219 655 q 234 631 240 596 q 246 562 246 505 l 246 421 q 246 391 250 376 q 254 361 262 352 q 270 342 283 336 q 296 330 315 327 q 319 326 323 323 q 327 321 329 315 q 331 310 333 302 q 334 293 334 280 z"},"Z":{"x_min":0,"x_max":478,"ha":478,"o":"m 457 51 q 457 37 456 27 q 455 17 452 11 q 450 5 446 2 q 442 0 438 0 l 65 0 q 46 0 35 11 q 25 22 25 44 l 25 65 q 25 75 26 83 q 27 91 30 100 q 33 108 39 118 q 44 127 53 141 l 298 530 l 55 530 q 49 530 45 532 q 41 535 38 541 q 35 547 34 557 q 33 566 33 580 q 33 595 34 605 q 35 615 38 621 q 41 627 45 629 q 49 632 55 632 l 404 632 q 424 632 433 622 q 443 611 443 593 l 443 569 q 443 556 442 546 q 440 537 437 528 q 434 519 429 509 q 423 500 415 486 l 174 103 l 438 103 q 447 103 452 91 q 457 80 457 51 z"},"x":{"x_min":0,"x_max":459,"ha":459,"o":"m 440 25 q 444 17 444 12 q 443 6 437 3 q 430 0 416 -2 q 401 -3 378 -3 q 356 -3 343 -2 q 329 -1 322 1 q 314 3 310 6 q 307 9 305 14 l 224 169 l 144 14 q 142 9 138 6 q 135 3 128 1 q 121 -1 108 -2 q 95 -3 75 -3 q 53 -3 41 -2 q 28 0 22 3 q 16 6 16 12 q 16 17 20 25 l 141 240 l 29 441 q 25 450 25 456 q 24 462 31 465 q 37 469 51 470 q 65 472 89 472 q 110 472 123 471 q 136 470 144 469 q 151 467 154 464 q 158 461 160 456 l 238 311 l 315 456 q 316 460 319 463 q 322 466 329 468 q 335 470 346 471 q 357 472 376 472 q 397 472 410 471 q 423 470 429 466 q 435 463 434 457 q 434 451 429 441 l 320 243 z"},")":{"x_min":0,"x_max":312,"ha":312,"o":"m 259 263 q 259 208 252 154 q 246 101 233 48 q 220 -4 201 -56 q 182 -107 155 -158 q 154 -162 150 -164 q 146 -167 140 -169 q 133 -170 124 -171 q 114 -172 100 -172 q 80 -172 69 -170 q 58 -168 53 -165 q 47 -161 47 -155 q 47 -149 50 -142 q 91 -46 112 55 q 133 157 133 264 q 133 370 112 471 q 91 573 50 668 q 47 674 48 680 q 49 685 55 688 q 61 692 72 694 q 83 695 101 695 q 116 695 126 695 q 136 694 142 692 q 148 690 151 688 q 154 687 155 684 q 206 582 232 477 q 259 372 259 263 z"},"&":{"x_min":0,"x_max":705,"ha":705,"o":"m 40 176 q 40 204 48 228 q 56 252 72 273 q 88 295 112 314 q 136 334 167 353 q 149 375 136 395 q 124 415 115 433 q 106 451 102 467 q 98 483 98 500 q 98 534 110 564 q 123 594 148 616 q 174 638 214 651 q 254 664 311 664 q 362 664 399 654 q 436 644 460 626 q 484 608 496 582 q 507 556 507 523 q 507 494 497 469 q 487 444 467 422 q 447 399 417 379 q 386 358 346 337 q 359 322 375 305 q 392 288 409 271 q 426 254 444 238 q 461 221 478 207 q 484 217 490 229 q 495 242 498 256 q 502 271 504 285 q 506 300 506 314 l 506 329 q 506 334 508 338 q 510 342 516 345 q 522 347 534 348 q 545 350 563 350 q 581 350 592 349 q 603 348 610 346 q 616 343 619 339 q 622 335 622 329 l 622 313 q 622 290 618 266 q 615 242 608 219 q 602 196 592 176 q 582 155 570 137 q 587 124 600 115 q 612 106 621 101 q 630 96 636 94 q 642 92 646 92 q 651 92 656 92 q 660 92 663 88 q 666 85 667 76 q 669 67 669 50 q 669 32 668 22 q 667 12 666 7 q 664 2 660 -1 q 656 -4 646 -7 q 636 -10 623 -10 q 612 -10 600 -7 q 589 -4 574 3 q 559 11 539 23 q 519 36 492 55 q 469 40 445 27 q 420 15 394 6 q 367 -2 339 -6 q 311 -11 278 -11 q 247 -11 216 -6 q 186 -1 159 9 q 133 19 111 34 q 89 49 73 70 q 58 91 49 117 q 40 144 40 176 z m 228 506 q 228 496 231 485 q 234 474 240 462 q 247 450 256 436 q 265 423 277 407 q 306 423 325 436 q 344 449 356 462 q 368 474 373 487 q 377 499 377 512 q 377 524 373 534 q 369 544 359 552 q 350 560 336 564 q 323 568 304 568 q 284 568 269 564 q 255 559 246 551 q 236 542 232 531 q 228 519 228 506 z m 173 183 q 173 162 181 145 q 188 127 203 114 q 218 102 240 94 q 261 87 290 87 q 304 87 319 90 q 333 93 347 97 q 361 102 373 109 q 386 115 396 123 q 375 141 352 160 q 330 180 309 200 q 288 220 269 240 q 250 260 234 277 q 217 267 206 255 q 194 244 187 232 q 180 220 176 208 q 173 196 173 183 z m 0 632 z"},"_":{"x_min":0,"x_max":498,"ha":498,"o":"m 501 -133 q 501 -157 496 -168 q 492 -178 481 -178 l 17 -178 q 6 -178 1 -168 q -3 -158 -3 -133 q -3 -109 1 -98 q 6 -87 17 -87 l 481 -87 q 492 -87 496 -98 q 501 -108 501 -133 z"},"v":{"x_min":0,"x_max":473,"ha":473,"o":"m 462 453 q 462 450 462 447 q 462 443 461 439 q 460 435 459 430 q 458 424 456 417 l 325 23 q 323 15 319 10 q 314 5 305 2 q 295 -1 279 -2 q 263 -3 236 -3 q 210 -3 194 -2 q 178 0 168 2 q 159 5 155 10 q 151 16 148 23 l 18 417 q 15 427 13 435 q 11 443 11 446 q 11 450 11 453 q 11 458 13 461 q 16 465 23 467 q 30 470 42 471 q 54 472 72 472 q 92 472 104 470 q 116 469 123 467 q 130 465 133 461 q 136 457 138 451 l 237 131 l 240 119 l 243 131 l 341 451 q 342 457 345 461 q 349 465 355 467 q 362 469 374 470 q 385 472 404 472 q 422 472 433 471 q 445 470 451 467 q 458 465 460 461 q 462 458 462 453 z"},"O":{"x_min":0,"x_max":676,"ha":676,"o":"m 637 323 q 637 245 618 183 q 598 121 560 77 q 521 34 464 11 q 407 -11 333 -11 q 259 -11 204 8 q 149 27 112 67 q 76 106 57 167 q 39 229 39 312 q 39 389 59 450 q 78 511 117 554 q 155 597 212 620 q 269 643 344 643 q 416 643 471 624 q 526 605 563 565 q 600 526 618 466 q 637 405 637 323 z m 502 316 q 502 366 495 407 q 487 448 468 477 q 449 506 418 522 q 387 538 340 538 q 292 538 261 520 q 229 502 209 472 q 190 442 182 403 q 174 363 174 318 q 174 267 182 225 q 189 184 208 155 q 227 125 258 110 q 289 95 336 95 q 384 95 416 112 q 447 130 467 160 q 486 190 494 231 q 502 271 502 316 z"},"(":{"x_min":0,"x_max":312,"ha":312,"o":"m 261 668 q 220 573 199 471 q 178 370 178 264 q 178 157 199 56 q 221 -45 261 -142 q 264 -149 264 -155 q 264 -161 258 -165 q 253 -168 242 -170 q 231 -172 211 -172 q 198 -172 188 -171 q 178 -170 172 -169 q 165 -167 161 -164 q 158 -162 156 -158 q 130 -107 110 -56 q 91 -4 78 48 q 65 101 59 154 q 52 208 52 263 q 52 317 59 371 q 65 424 79 477 q 92 529 111 581 q 130 633 156 684 q 157 687 160 688 q 163 690 169 692 q 175 694 185 695 q 195 695 210 695 q 228 695 239 694 q 250 692 256 688 q 262 685 263 680 q 264 674 261 668 z"},"C":{"x_min":0,"x_max":529,"ha":529,"o":"m 506 96 q 506 83 505 75 q 504 66 503 60 q 501 54 499 50 q 497 45 491 40 q 486 34 470 25 q 455 17 433 9 q 411 0 382 -5 q 354 -10 320 -10 q 255 -10 203 10 q 151 30 114 70 q 78 109 58 169 q 39 229 39 308 q 39 388 60 451 q 82 513 120 556 q 159 598 213 620 q 267 642 332 642 q 358 642 382 638 q 407 633 427 626 q 448 619 465 610 q 481 601 488 594 q 495 587 497 583 q 500 579 501 572 q 502 565 503 556 q 504 546 504 533 q 504 518 503 508 q 502 498 500 491 q 497 485 494 482 q 490 479 486 479 q 479 479 467 488 q 456 496 438 507 q 420 517 396 526 q 371 534 337 534 q 299 534 270 519 q 240 503 219 475 q 199 446 188 406 q 177 365 177 314 q 177 259 189 218 q 200 177 221 151 q 243 125 273 112 q 303 99 340 99 q 375 99 399 107 q 424 115 442 125 q 460 134 471 142 q 483 150 489 150 q 494 150 497 148 q 500 146 502 140 q 504 134 505 124 q 506 113 506 96 z"},"W":{"x_min":0,"x_max":906,"ha":906,"o":"m 734 33 q 731 21 726 14 q 721 7 710 3 q 700 0 684 -2 q 668 -3 643 -3 q 615 -3 598 -2 q 582 0 572 3 q 562 7 558 14 q 553 21 551 33 l 450 433 l 449 433 l 353 33 q 351 21 346 14 q 342 7 332 3 q 323 0 306 -2 q 290 -3 263 -3 q 235 -3 218 -2 q 201 0 191 3 q 182 7 177 14 q 173 21 170 33 l 26 584 q 22 602 21 612 q 21 622 27 627 q 33 632 47 634 q 61 635 86 635 q 109 635 122 634 q 136 633 143 631 q 149 628 152 623 q 154 618 156 608 l 267 125 l 267 125 l 382 605 q 384 614 387 620 q 391 626 398 629 q 406 632 419 634 q 432 635 454 635 q 478 635 491 634 q 505 633 513 630 q 521 626 524 621 q 527 615 529 605 l 648 125 l 649 125 l 760 607 q 762 615 764 620 q 767 626 773 629 q 780 632 793 634 q 806 635 829 635 q 850 635 862 634 q 874 632 879 627 q 885 622 884 611 q 883 601 879 583 z"},"A":{"x_min":0,"x_max":606,"ha":606,"o":"m 586 48 q 592 30 594 20 q 595 10 590 5 q 584 0 571 -2 q 557 -3 533 -3 q 508 -3 494 -2 q 480 -1 473 1 q 466 3 463 7 q 460 11 458 17 l 416 144 l 178 144 l 138 21 q 136 14 133 9 q 130 4 123 2 q 116 -1 103 -2 q 90 -3 69 -3 q 46 -3 34 -1 q 21 0 16 6 q 11 11 13 21 q 14 32 20 49 l 215 609 q 218 618 222 623 q 226 628 234 631 q 243 633 258 634 q 273 635 298 635 q 327 635 344 634 q 361 633 370 631 q 380 628 384 623 q 388 617 391 608 z m 296 511 l 296 511 l 207 243 l 386 243 z"},"f":{"x_min":0,"x_max":316,"ha":316,"o":"m 324 618 q 324 604 323 595 q 322 587 320 582 q 318 578 316 576 q 313 574 311 574 q 307 574 303 576 q 299 578 293 580 q 287 582 278 583 q 270 585 259 585 q 246 585 236 581 q 227 577 220 568 q 214 559 211 544 q 208 530 208 509 l 208 469 l 288 469 q 292 469 296 466 q 299 464 302 458 q 304 453 305 443 q 307 433 307 419 q 307 392 302 381 q 297 369 288 369 l 208 369 l 208 17 q 208 12 205 8 q 202 4 195 2 q 188 0 176 -2 q 164 -3 146 -3 q 129 -3 117 -2 q 105 0 98 2 q 91 4 88 8 q 85 12 85 17 l 85 369 l 31 369 q 21 369 17 381 q 12 392 12 419 q 12 433 13 443 q 15 453 17 458 q 19 464 23 466 q 26 469 31 469 l 85 469 l 85 505 q 85 550 94 583 q 103 617 122 639 q 141 661 170 672 q 199 684 238 684 q 257 684 274 680 q 292 677 301 674 q 311 670 314 667 q 318 664 320 657 q 322 651 323 642 q 324 632 324 618 z"},"Q":{"x_min":0,"x_max":686,"ha":686,"o":"m 697 -60 q 697 -78 695 -88 q 693 -99 690 -105 q 688 -111 684 -113 q 681 -114 677 -114 q 661 -114 635 -105 q 608 -97 578 -80 q 548 -64 516 -40 q 485 -17 458 14 q 436 4 404 -4 q 372 -11 333 -11 q 259 -11 204 8 q 149 26 112 66 q 76 105 57 167 q 39 228 39 312 q 39 389 59 450 q 78 512 117 554 q 155 597 212 620 q 269 643 344 643 q 415 643 469 624 q 524 605 561 566 q 599 526 618 466 q 637 406 637 324 q 637 282 632 244 q 626 207 615 175 q 604 144 589 117 q 573 91 553 71 q 583 44 607 31 q 630 17 646 10 q 662 3 672 0 q 681 -3 687 -8 q 692 -13 694 -26 q 697 -38 697 -60 z m 502 317 q 502 367 495 407 q 487 448 468 477 q 449 506 418 522 q 387 538 340 538 q 292 538 261 520 q 229 502 209 473 q 190 443 182 403 q 174 363 174 319 q 174 267 182 226 q 189 184 208 155 q 227 125 258 110 q 289 95 336 95 q 384 95 416 112 q 447 130 467 160 q 486 190 494 231 q 502 271 502 317 z"},"w":{"x_min":0,"x_max":745,"ha":745,"o":"m 728 453 q 728 448 727 440 q 725 432 721 417 l 605 23 q 603 15 599 10 q 595 5 587 2 q 579 -1 564 -2 q 549 -3 525 -3 q 501 -3 486 -2 q 471 0 462 2 q 454 5 450 10 q 446 16 444 23 l 371 288 l 370 292 l 369 288 l 301 23 q 299 15 296 10 q 292 5 283 2 q 274 -1 259 -2 q 244 -3 220 -3 q 196 -3 181 -2 q 166 0 157 2 q 149 5 145 10 q 141 16 139 23 l 24 417 q 20 432 18 440 q 17 448 17 453 q 17 458 20 462 q 22 465 30 468 q 37 470 49 471 q 61 472 79 472 q 98 472 110 471 q 123 470 129 467 q 136 465 139 461 q 142 457 143 451 l 229 131 l 230 125 l 231 131 l 312 451 q 314 457 317 461 q 320 465 327 467 q 333 470 344 471 q 356 472 374 472 q 392 472 403 470 q 415 469 421 467 q 428 465 430 461 q 433 458 435 453 l 521 130 l 523 125 l 524 131 l 607 451 q 608 457 611 461 q 614 465 621 467 q 627 470 639 471 q 651 472 669 472 q 687 472 698 471 q 710 470 717 468 q 723 465 726 462 q 728 458 728 453 z"},"-":{"x_min":0,"x_max":306,"ha":306,"o":"m 277 246 q 277 217 272 206 q 267 195 255 195 l 52 195 q 40 195 34 206 q 29 218 29 246 q 29 273 34 284 q 40 295 52 295 l 255 295 q 261 295 265 293 q 269 291 272 285 q 275 279 276 269 q 277 259 277 246 z"},"E":{"x_min":0,"x_max":488,"ha":488,"o":"m 443 50 q 443 36 442 27 q 441 17 438 11 q 436 5 432 3 q 429 0 424 0 l 107 0 q 91 0 80 10 q 69 19 69 41 l 69 591 q 69 613 80 622 q 91 632 107 632 l 422 632 q 427 632 430 629 q 434 627 436 621 q 438 615 440 605 q 441 596 441 581 q 441 567 440 558 q 438 548 436 542 q 434 537 430 534 q 427 531 422 531 l 197 531 l 197 377 l 388 377 q 392 377 396 374 q 399 372 402 366 q 404 360 406 351 q 407 341 407 328 q 407 313 406 304 q 404 295 402 289 q 399 284 396 281 q 392 279 388 279 l 197 279 l 197 101 l 424 101 q 429 101 432 98 q 436 95 438 89 q 441 83 442 74 q 443 64 443 50 z"},"s":{"x_min":0,"x_max":399,"ha":399,"o":"m 368 140 q 368 103 354 74 q 340 46 315 27 q 290 8 255 -2 q 220 -11 180 -11 q 155 -11 133 -8 q 111 -4 93 2 q 76 7 64 13 q 52 19 47 24 q 42 29 39 40 q 36 51 36 73 q 36 87 37 95 q 38 104 40 109 q 42 114 44 116 q 47 118 52 118 q 57 118 68 112 q 78 105 94 98 q 109 91 130 84 q 151 78 177 78 q 194 78 207 82 q 220 85 229 91 q 239 98 244 107 q 249 117 249 130 q 249 145 240 155 q 230 166 216 173 q 201 181 182 188 q 163 195 143 203 q 124 211 105 222 q 86 233 71 249 q 56 264 47 286 q 38 308 38 339 q 38 370 50 396 q 62 422 85 441 q 108 459 141 470 q 174 480 215 480 q 236 480 255 477 q 274 474 290 470 q 306 465 316 460 q 327 455 332 451 q 336 448 338 444 q 340 440 341 435 q 342 430 343 423 q 344 415 344 404 q 344 391 343 382 q 342 374 341 369 q 339 364 336 363 q 333 361 329 361 q 325 361 315 366 q 306 371 292 377 q 278 383 260 388 q 242 393 218 393 q 202 393 189 390 q 177 386 169 380 q 162 374 158 365 q 154 356 154 347 q 154 332 163 321 q 172 311 188 303 q 203 295 222 289 q 241 282 261 274 q 281 266 300 255 q 319 244 334 229 q 350 213 359 191 q 368 169 368 140 z"},">":{"x_min":0,"x_max":498,"ha":498,"o":"m 464 281 q 464 268 463 259 q 462 250 460 243 q 458 237 456 233 q 453 229 450 228 l 75 42 q 68 39 63 40 q 59 40 55 45 q 52 50 51 59 q 50 69 50 83 q 50 104 51 115 q 51 127 53 134 q 55 141 59 144 q 62 147 68 149 l 349 281 l 73 409 q 65 413 61 416 q 56 419 54 427 q 51 434 51 446 q 50 458 50 478 q 50 496 51 506 q 52 517 55 521 q 59 525 63 525 q 68 524 75 521 l 450 334 q 457 331 460 318 q 464 306 464 281 z"},"l":{"x_min":0,"x_max":246,"ha":246,"o":"m 185 17 q 185 12 182 8 q 179 4 172 2 q 165 0 153 -2 q 141 -3 123 -3 q 105 -3 93 -2 q 82 0 74 2 q 67 4 64 8 q 62 12 62 17 l 62 659 q 62 664 64 667 q 67 671 74 674 q 82 677 93 678 q 105 680 123 680 q 141 680 153 678 q 165 677 172 674 q 179 671 182 667 q 185 664 185 659 z"},"8":{"x_min":0,"x_max":507,"ha":507,"o":""},"\\":{"x_min":0,"x_max":430,"ha":430,"o":"m 423 -106 q 427 -119 427 -126 q 428 -134 422 -137 q 417 -141 404 -142 q 392 -143 371 -143 q 351 -143 339 -142 q 327 -141 320 -139 q 313 -137 311 -134 q 308 -130 305 -125 l 19 682 q 15 694 14 702 q 14 709 19 712 q 25 716 37 717 q 49 718 71 718 q 90 718 102 717 q 114 716 121 714 q 128 712 131 709 q 134 705 136 700 z"},"e":{"x_min":0,"x_max":503,"ha":503,"o":"m 464 247 q 464 225 454 214 q 444 203 426 203 l 161 203 q 161 175 168 153 q 174 130 189 114 q 203 98 226 90 q 249 82 280 82 q 312 82 337 86 q 361 91 379 96 q 397 102 409 107 q 420 111 428 111 q 432 111 435 110 q 438 108 440 104 q 442 99 443 91 q 443 83 443 71 q 443 60 443 52 q 442 45 441 40 q 440 34 438 31 q 437 27 433 23 q 430 20 416 14 q 402 8 380 3 q 358 -3 330 -7 q 301 -11 269 -11 q 211 -11 167 3 q 124 18 94 48 q 65 78 51 123 q 36 168 36 229 q 36 288 51 334 q 66 381 95 413 q 124 446 165 463 q 207 480 258 480 q 313 480 352 464 q 391 448 416 419 q 440 391 452 352 q 464 312 464 267 z m 345 282 q 346 334 324 364 q 302 393 255 393 q 232 393 215 384 q 197 375 186 361 q 174 346 168 325 q 162 305 161 282 z"},"b":{"x_min":0,"x_max":537,"ha":537,"o":"m 500 240 q 500 182 487 136 q 475 89 451 57 q 427 24 392 6 q 357 -11 312 -11 q 291 -11 271 -7 q 252 -3 235 6 q 218 16 201 30 q 184 44 167 64 l 167 17 q 167 11 164 8 q 161 4 155 1 q 149 -1 139 -2 q 128 -3 114 -3 q 99 -3 89 -2 q 79 -1 73 1 q 66 4 64 8 q 62 11 62 17 l 62 659 q 62 664 64 667 q 67 671 74 674 q 82 677 93 678 q 105 680 123 680 q 141 680 153 678 q 165 677 172 674 q 179 671 182 667 q 185 664 185 659 l 185 418 q 201 435 218 446 q 234 458 251 466 q 268 473 285 477 q 303 480 322 480 q 371 480 404 461 q 438 441 459 409 q 480 376 490 332 q 500 289 500 240 z m 373 231 q 373 259 368 285 q 364 311 354 331 q 344 351 327 363 q 311 375 286 375 q 274 375 262 372 q 250 368 238 360 q 226 352 212 338 q 199 325 185 306 l 185 161 q 210 128 234 111 q 258 93 284 93 q 308 93 324 105 q 341 118 352 137 q 363 157 368 182 q 373 207 373 231 z"},"%":{"x_min":0,"x_max":729,"ha":729,"o":""},"m":{"x_min":0,"x_max":813,"ha":813,"o":"m 754 17 q 754 12 751 8 q 749 4 742 2 q 735 0 723 -2 q 711 -3 693 -3 q 675 -3 663 -2 q 651 0 644 2 q 637 4 635 8 q 632 12 632 17 l 632 275 q 632 297 628 315 q 624 333 615 346 q 606 359 594 366 q 581 373 562 373 q 541 373 518 356 q 496 339 469 306 l 469 17 q 469 12 466 8 q 463 4 456 2 q 449 0 438 -2 q 426 -3 408 -3 q 390 -3 378 -2 q 367 0 360 2 q 353 4 350 8 q 347 12 347 17 l 347 275 q 347 297 343 315 q 338 333 330 346 q 322 359 309 366 q 295 373 278 373 q 255 373 233 356 q 210 339 185 306 l 185 17 q 185 12 182 8 q 179 4 172 2 q 165 0 153 -2 q 141 -3 123 -3 q 105 -3 93 -2 q 82 0 74 2 q 67 4 64 8 q 62 12 62 17 l 62 452 q 62 457 64 461 q 66 464 73 467 q 79 469 89 470 q 99 472 114 472 q 130 472 140 470 q 150 469 156 467 q 162 464 164 461 q 167 457 167 452 l 167 402 q 203 441 239 460 q 274 480 313 480 q 340 480 362 474 q 383 469 400 458 q 417 448 429 433 q 441 418 450 400 q 469 421 488 437 q 507 452 525 461 q 543 471 562 475 q 580 480 599 480 q 643 480 672 465 q 702 451 720 426 q 739 400 747 367 q 754 333 754 295 z"},"#":{"x_min":0,"x_max":498,"ha":498,"o":"m 484 433 q 484 421 482 413 q 481 405 479 400 q 476 395 472 393 q 469 391 465 391 l 409 391 l 393 251 l 440 251 q 449 251 454 242 q 459 232 459 210 q 459 198 458 190 q 456 182 454 177 q 451 172 448 170 q 444 167 440 167 l 382 167 l 364 15 q 363 10 361 7 q 359 4 353 1 q 348 -1 338 -2 q 329 -3 314 -3 q 298 -3 289 -2 q 279 -1 274 1 q 270 4 268 7 q 266 10 267 15 l 285 167 l 176 167 l 158 15 q 157 11 155 7 q 153 4 147 1 q 142 -1 133 -2 q 123 -3 107 -3 q 92 -3 83 -2 q 74 -1 69 1 q 63 4 62 7 q 60 10 61 15 l 79 167 l 32 167 q 24 167 19 177 q 14 186 14 209 q 14 221 15 229 q 17 237 19 242 q 21 247 25 249 q 28 251 33 251 l 89 251 l 106 391 l 57 391 q 48 391 43 400 q 38 409 38 432 q 38 456 43 465 q 49 474 57 474 l 116 474 l 133 617 q 133 621 136 624 q 138 627 144 630 q 150 632 160 634 q 169 635 185 635 q 200 635 209 634 q 218 632 223 630 q 228 627 229 624 q 230 621 230 617 l 212 474 l 322 474 l 338 617 q 339 621 341 624 q 344 627 349 630 q 355 632 365 634 q 375 635 390 635 q 405 635 415 634 q 424 632 429 630 q 434 627 435 624 q 436 621 436 617 l 418 474 l 465 474 q 474 474 479 465 q 484 455 484 433 z m 203 391 l 186 251 l 295 251 l 312 391 z"},",":{"x_min":0,"x_max":258,"ha":258,"o":"m 206 90 q 206 70 204 54 q 202 39 198 24 q 193 10 187 -3 q 180 -17 169 -31 l 104 -125 q 101 -129 96 -133 q 92 -136 86 -138 q 81 -140 72 -141 q 64 -143 51 -143 q 37 -143 28 -141 q 20 -140 16 -138 q 12 -135 11 -131 q 11 -127 14 -122 l 73 13 l 73 90 q 73 106 77 117 q 81 127 89 132 q 98 138 110 139 q 123 141 141 141 q 158 141 170 139 q 183 138 191 132 q 199 127 202 117 q 206 106 206 90 z"},"n":{"x_min":0,"x_max":537,"ha":537,"o":"m 478 17 q 478 12 475 8 q 472 4 465 2 q 458 0 446 -2 q 434 -3 417 -3 q 398 -3 386 -2 q 375 0 368 2 q 361 4 358 8 q 355 12 355 17 l 355 265 q 355 297 350 315 q 346 333 337 346 q 328 359 314 366 q 300 373 282 373 q 258 373 234 356 q 210 339 185 306 l 185 17 q 185 12 182 8 q 179 4 172 2 q 165 0 153 -2 q 141 -3 123 -3 q 105 -3 93 -2 q 82 0 74 2 q 67 4 64 8 q 62 12 62 17 l 62 452 q 62 457 64 461 q 66 464 73 467 q 79 469 89 470 q 99 472 114 472 q 130 472 140 470 q 150 469 156 467 q 162 464 164 461 q 167 457 167 452 l 167 402 q 203 441 240 460 q 277 480 318 480 q 362 480 393 465 q 423 451 442 426 q 461 400 469 367 q 478 333 478 286 z"},"h":{"x_min":0,"x_max":537,"ha":537,"o":"m 478 17 q 478 12 475 8 q 472 4 465 2 q 458 0 446 -2 q 434 -3 417 -3 q 398 -3 386 -2 q 375 0 368 2 q 361 4 358 8 q 355 12 355 17 l 355 265 q 355 297 350 315 q 346 333 337 346 q 328 359 314 366 q 300 373 282 373 q 258 373 234 356 q 210 339 185 306 l 185 17 q 185 12 182 8 q 179 4 172 2 q 165 0 153 -2 q 141 -3 123 -3 q 105 -3 93 -2 q 82 0 74 2 q 67 4 64 8 q 62 12 62 17 l 62 659 q 62 664 64 667 q 67 671 74 674 q 82 677 93 678 q 105 680 123 680 q 141 680 153 678 q 165 677 172 674 q 179 671 182 667 q 185 664 185 659 l 185 418 q 216 449 249 465 q 282 480 318 480 q 362 480 393 465 q 423 451 442 425 q 461 400 469 366 q 478 332 478 284 z"},"z":{"x_min":0,"x_max":397,"ha":397,"o":"m 366 50 q 366 36 365 26 q 363 16 361 10 q 358 4 354 2 q 351 0 346 0 l 61 0 q 48 0 41 9 q 34 18 34 38 l 34 60 q 34 69 34 76 q 35 83 37 90 q 40 96 43 103 q 47 110 53 118 l 216 370 l 62 370 q 52 370 47 382 q 41 394 41 419 q 41 434 42 443 q 43 453 46 458 q 48 464 52 466 q 56 469 62 469 l 328 469 q 334 469 339 467 q 344 466 347 462 q 351 458 352 451 q 354 444 354 434 l 354 410 q 354 400 353 393 q 352 385 350 378 q 348 372 344 365 q 341 358 336 350 l 174 99 l 346 99 q 350 99 354 97 q 358 95 361 89 q 363 84 365 74 q 366 65 366 50 z"},"B":{"x_min":0,"x_max":561,"ha":561,"o":"m 526 189 q 526 156 517 128 q 508 101 491 80 q 475 59 452 44 q 430 29 402 19 q 375 9 344 5 q 313 0 275 0 l 107 0 q 91 0 80 10 q 69 19 69 41 l 69 591 q 69 613 80 622 q 91 632 107 632 l 266 632 q 324 632 364 622 q 404 612 432 593 q 459 573 474 542 q 489 512 489 471 q 489 448 483 428 q 477 408 466 391 q 455 375 438 362 q 422 349 401 341 q 428 336 450 324 q 473 312 490 293 q 507 273 517 248 q 526 222 526 189 z m 360 456 q 360 475 354 490 q 349 505 337 515 q 325 525 307 530 q 290 536 260 536 l 195 536 l 195 372 l 267 372 q 294 372 311 378 q 328 385 339 396 q 350 408 355 423 q 360 438 360 456 z m 393 185 q 393 207 386 224 q 378 242 364 253 q 350 265 328 271 q 306 278 271 278 l 195 278 l 195 98 l 288 98 q 314 98 333 104 q 351 109 365 120 q 378 131 385 148 q 393 164 393 185 z"},"K":{"x_min":0,"x_max":547,"ha":547,"o":"m 530 19 q 530 14 528 10 q 525 5 517 3 q 510 0 497 -1 q 483 -3 463 -3 q 432 -3 418 0 q 404 2 398 7 q 392 12 388 19 l 197 318 l 197 19 q 197 13 194 9 q 191 5 184 3 q 177 0 165 -1 q 152 -3 133 -3 q 115 -3 102 -1 q 90 0 83 3 q 75 5 72 9 q 69 13 69 19 l 69 614 q 69 619 72 623 q 75 627 83 629 q 90 632 102 633 q 115 635 133 635 q 152 635 165 633 q 177 632 184 629 q 191 627 194 623 q 197 619 197 614 l 197 345 l 382 613 q 386 620 391 624 q 396 628 403 630 q 411 633 423 634 q 436 635 455 635 q 474 635 487 633 q 500 632 507 629 q 515 626 518 623 q 521 619 521 614 q 521 605 516 597 q 512 588 500 569 l 326 342 l 515 56 q 526 36 528 30 q 530 23 530 19 z"},"R":{"x_min":0,"x_max":563,"ha":563,"o":"m 538 17 q 538 11 536 8 q 534 4 526 1 q 519 -1 505 -2 q 491 -3 466 -3 q 446 -3 434 -2 q 421 -1 414 2 q 407 4 404 9 q 401 13 399 19 l 343 160 q 333 184 323 202 q 313 221 301 233 q 289 246 273 252 q 258 258 237 258 l 197 258 l 197 18 q 197 13 194 9 q 191 5 184 2 q 176 0 164 -1 q 152 -3 133 -3 q 114 -3 102 -1 q 89 0 82 2 q 75 5 72 9 q 69 13 69 18 l 69 591 q 69 613 80 622 q 91 632 107 632 l 271 632 q 295 632 312 631 q 328 630 341 628 q 379 623 409 610 q 440 597 461 575 q 482 554 494 525 q 505 496 505 458 q 505 427 497 401 q 489 375 473 354 q 458 333 435 318 q 412 303 382 294 q 396 287 409 277 q 421 268 432 254 q 443 240 453 222 q 463 204 472 182 l 525 57 q 533 39 535 30 q 538 21 538 17 z m 372 445 q 372 477 358 498 q 344 520 312 528 q 302 531 289 532 q 277 534 255 534 l 197 534 l 197 354 l 263 354 q 290 354 311 361 q 331 368 345 380 q 358 392 365 408 q 372 425 372 445 z"},"T":{"x_min":0,"x_max":495,"ha":495,"o":"m 489 579 q 489 565 488 555 q 487 545 484 539 q 482 533 478 530 q 475 527 470 527 l 312 527 l 312 18 q 312 13 309 9 q 306 5 298 2 q 291 0 279 -1 q 266 -3 248 -3 q 229 -3 217 -1 q 204 0 197 2 q 189 5 186 9 q 183 13 183 18 l 183 527 l 25 527 q 20 527 17 530 q 13 533 11 539 q 8 545 7 555 q 6 565 6 579 q 6 594 7 604 q 8 614 11 620 q 13 626 17 629 q 20 632 25 632 l 470 632 q 475 632 478 629 q 482 626 484 620 q 487 614 488 604 q 489 594 489 579 z"},"P":{"x_min":0,"x_max":532,"ha":532,"o":"m 501 440 q 501 387 485 346 q 468 305 437 277 q 405 249 359 234 q 312 219 250 219 l 197 219 l 197 18 q 197 13 194 9 q 191 5 184 2 q 176 0 164 -1 q 152 -3 133 -3 q 114 -3 102 -1 q 89 0 82 2 q 75 5 72 9 q 69 13 69 18 l 69 586 q 69 609 81 620 q 93 632 112 632 l 261 632 q 284 632 304 630 q 324 628 353 623 q 381 617 410 602 q 439 587 459 564 q 480 541 491 510 q 501 479 501 440 z m 367 431 q 367 464 355 485 q 344 507 327 517 q 310 527 291 530 q 272 533 252 533 l 197 533 l 197 318 l 255 318 q 286 318 306 327 q 327 335 340 350 q 354 365 360 385 q 367 406 367 431 z"},"|":{"x_min":0,"x_max":475,"ha":475,"o":"m 295 -158 q 295 -163 293 -167 q 290 -170 283 -173 q 276 -176 265 -177 q 254 -178 237 -178 q 221 -178 210 -177 q 199 -176 192 -173 q 185 -170 182 -167 q 180 -163 180 -158 l 180 685 q 180 690 182 694 q 185 698 192 700 q 199 703 210 705 q 221 706 237 706 q 254 706 265 705 q 276 703 283 700 q 290 698 293 694 q 295 690 295 685 z"},"t":{"x_min":0,"x_max":347,"ha":347,"o":"m 319 60 q 319 38 317 27 q 314 15 310 10 q 305 6 297 2 q 288 -1 277 -4 q 265 -7 252 -8 q 238 -10 225 -10 q 188 -10 161 0 q 134 9 117 28 q 99 47 91 77 q 83 106 83 146 l 83 369 l 30 369 q 21 369 16 381 q 11 392 11 419 q 11 433 12 443 q 14 453 16 458 q 19 464 22 466 q 26 469 31 469 l 83 469 l 83 566 q 83 571 85 575 q 88 579 95 581 q 102 584 114 585 q 126 586 144 586 q 162 586 174 585 q 186 584 192 581 q 199 579 202 575 q 205 571 205 566 l 205 469 l 300 469 q 305 469 308 466 q 312 464 314 458 q 317 453 318 443 q 319 433 319 419 q 319 392 314 381 q 310 369 300 369 l 205 369 l 205 165 q 205 129 216 111 q 228 93 256 93 q 266 93 274 95 q 282 97 288 99 q 294 101 298 103 q 302 104 306 104 q 309 104 311 103 q 314 101 315 96 q 317 91 318 82 q 319 73 319 60 z"},"M":{"x_min":0,"x_max":874,"ha":874,"o":"m 805 18 q 805 13 802 9 q 800 5 793 2 q 786 0 774 -1 q 762 -3 744 -3 q 727 -3 715 -1 q 703 0 696 2 q 689 5 687 9 q 684 13 684 18 l 684 532 l 683 532 l 500 18 q 498 12 493 8 q 489 3 481 1 q 474 -1 462 -2 q 450 -3 434 -3 q 417 -3 405 -2 q 394 0 386 2 q 378 5 374 9 q 370 13 368 18 l 191 532 l 190 532 l 190 18 q 190 13 188 9 q 185 5 178 2 q 170 0 159 -1 q 147 -3 129 -3 q 112 -3 100 -1 q 88 0 81 2 q 74 5 72 9 q 69 13 69 18 l 69 581 q 69 605 82 619 q 95 632 117 632 l 201 632 q 224 632 240 628 q 256 625 268 616 q 279 607 287 594 q 295 580 301 559 l 438 183 l 439 183 l 581 558 q 587 579 595 593 q 603 607 613 616 q 623 625 636 628 q 650 632 668 632 l 754 632 q 768 632 777 628 q 787 625 793 618 q 799 612 802 602 q 805 593 805 581 z"},"g":{"x_min":0,"x_max":474,"ha":474,"o":"m 454 422 q 454 398 449 387 q 443 376 436 376 l 384 376 q 395 364 400 349 q 404 334 404 318 q 404 280 392 251 q 379 221 355 201 q 332 181 298 170 q 265 160 224 160 q 203 160 184 165 q 165 170 154 177 q 148 170 144 162 q 139 153 139 142 q 139 128 152 119 q 164 110 187 109 l 292 105 q 330 104 359 94 q 388 85 407 69 q 427 53 438 30 q 448 7 448 -22 q 448 -55 434 -83 q 420 -112 392 -133 q 363 -154 321 -166 q 278 -178 221 -178 q 165 -178 126 -169 q 86 -161 61 -145 q 36 -129 25 -108 q 13 -86 13 -60 q 13 -44 17 -29 q 21 -15 30 -1 q 38 12 49 24 q 61 37 76 48 q 55 59 44 78 q 32 98 32 121 q 32 149 45 173 q 59 197 80 216 q 62 233 52 257 q 42 281 42 316 q 42 354 55 385 q 69 415 93 435 q 117 456 150 467 q 183 478 223 478 q 244 478 262 476 q 281 473 297 469 l 436 469 q 444 469 449 458 q 454 447 454 422 z m 296 319 q 296 354 277 374 q 257 393 222 393 q 204 393 190 387 q 176 381 167 370 q 158 360 154 346 q 149 332 149 317 q 149 284 169 264 q 188 245 223 245 q 242 245 255 251 q 269 257 278 267 q 287 277 292 291 q 296 304 296 319 z m 325 -29 q 325 -7 308 5 q 290 17 259 18 l 172 20 q 159 11 152 2 q 144 -6 139 -14 q 135 -22 133 -29 q 132 -37 132 -44 q 132 -69 156 -82 q 181 -94 226 -94 q 254 -94 273 -89 q 292 -83 304 -74 q 315 -64 320 -53 q 325 -42 325 -29 z"},"j":{"x_min":0,"x_max":255,"ha":255,"o":"m 194 2 q 194 -49 185 -81 q 176 -113 158 -135 q 141 -156 114 -167 q 87 -178 51 -178 q 31 -178 17 -176 q 2 -173 -4 -170 q -10 -167 -13 -163 q -15 -158 -16 -153 q -17 -147 -18 -140 q -18 -133 -18 -122 q -18 -108 -17 -99 q -17 -90 -15 -84 q -13 -79 -10 -77 q -8 -74 -4 -74 q -1 -74 6 -75 q 14 -77 22 -77 q 35 -77 44 -73 q 54 -69 60 -60 q 65 -52 68 -38 q 71 -25 71 4 l 71 451 q 71 456 74 460 q 77 463 84 466 q 91 469 103 470 q 114 472 132 472 q 150 472 162 470 q 174 469 181 466 q 188 463 191 460 q 194 456 194 451 z m 203 600 q 203 562 188 548 q 173 534 132 534 q 91 534 76 548 q 62 562 62 597 q 62 634 77 649 q 92 663 133 663 q 174 663 189 649 q 203 635 203 600 z"},"i":{"x_min":0,"x_max":246,"ha":246,"o":"m 185 17 q 185 12 182 8 q 179 4 172 2 q 165 0 153 -2 q 141 -3 123 -3 q 105 -3 93 -2 q 82 0 74 2 q 67 4 64 8 q 62 12 62 17 l 62 451 q 62 456 64 460 q 67 463 74 466 q 82 469 93 470 q 105 472 123 472 q 141 472 153 470 q 165 469 172 466 q 179 463 182 460 q 185 456 185 451 z m 194 600 q 194 562 179 548 q 164 534 123 534 q 81 534 67 548 q 52 562 52 597 q 52 634 67 649 q 82 663 124 663 q 165 663 179 649 q 194 635 194 600 z"},"y":{"x_min":0,"x_max":474,"ha":474,"o":"m 314 0 l 261 -154 q 257 -167 237 -172 q 218 -177 180 -177 q 161 -177 149 -176 q 137 -174 131 -170 q 125 -166 125 -160 q 125 -154 128 -146 l 186 0 q 180 3 175 9 q 169 15 167 22 l 17 422 q 11 439 11 448 q 11 458 17 463 q 22 468 36 470 q 50 472 73 472 q 94 472 106 471 q 119 470 125 467 q 132 464 136 458 q 139 452 143 441 l 245 149 l 247 149 l 340 447 q 343 459 348 464 q 353 468 363 470 q 374 472 401 472 q 422 472 436 470 q 450 468 456 462 q 463 457 463 448 q 463 439 459 427 z"},"@":{"x_min":0,"x_max":898,"ha":898,"o":"m 835 375 q 835 340 831 303 q 826 267 815 234 q 804 200 787 171 q 770 142 745 120 q 721 99 689 86 q 658 74 618 74 q 594 74 574 78 q 555 83 540 92 q 525 101 516 115 q 506 128 501 146 q 482 126 464 113 q 446 99 428 90 q 410 82 393 78 q 375 74 357 74 q 334 74 316 79 q 299 85 286 95 q 273 104 264 117 q 256 130 250 146 q 245 162 243 179 q 241 196 241 213 q 241 236 244 265 q 248 293 257 323 q 265 352 279 380 q 293 407 314 429 q 335 451 364 464 q 392 477 428 477 q 445 477 459 474 q 473 470 486 463 q 500 456 512 444 q 524 432 538 415 l 546 453 q 548 461 558 466 q 568 470 594 470 q 606 470 615 469 q 624 468 628 466 q 633 463 635 460 q 636 457 636 453 l 594 234 q 587 198 596 181 q 605 165 631 165 q 648 165 663 174 q 677 183 687 199 q 698 215 705 236 q 712 256 717 279 q 722 302 724 325 q 726 348 726 370 q 726 409 715 444 q 705 479 677 505 q 650 532 604 547 q 558 562 487 562 q 439 562 400 553 q 360 543 329 527 q 298 510 273 487 q 249 464 231 437 q 213 410 200 379 q 188 349 181 317 q 173 286 170 255 q 167 224 167 194 q 167 141 178 99 q 190 57 219 28 q 248 -1 296 -17 q 344 -32 416 -32 q 454 -32 485 -28 q 516 -23 539 -19 q 562 -14 577 -9 q 591 -5 597 -5 q 600 -5 603 -7 q 605 -8 606 -13 q 608 -18 609 -26 q 609 -35 609 -47 q 609 -58 609 -65 q 608 -73 607 -78 q 606 -83 604 -87 q 602 -90 599 -93 q 596 -96 581 -101 q 565 -106 540 -112 q 514 -117 480 -121 q 445 -125 404 -125 q 312 -125 246 -103 q 181 -82 139 -42 q 97 -1 78 56 q 59 113 59 185 q 59 225 64 267 q 70 308 82 349 q 93 389 112 427 q 131 466 157 500 q 183 534 217 563 q 250 591 293 612 q 335 632 386 644 q 437 655 498 655 q 587 655 651 635 q 715 615 756 578 q 797 542 816 490 q 835 438 835 375 z m 507 332 q 493 359 477 373 q 461 386 441 386 q 424 386 410 378 q 397 370 387 357 q 376 343 369 326 q 362 310 358 292 q 353 274 351 258 q 349 241 349 228 q 349 199 360 182 q 371 165 396 165 q 405 165 415 168 q 425 171 436 178 q 447 185 460 197 q 472 208 487 224 z m 0 632 z"},".":{"x_min":0,"x_max":267,"ha":267,"o":"m 206 70 q 206 25 190 9 q 174 -6 133 -6 q 92 -6 77 9 q 61 24 61 67 q 61 113 77 129 q 93 145 134 145 q 175 145 190 129 q 206 114 206 70 z"},"p":{"x_min":0,"x_max":537,"ha":537,"o":"m 500 241 q 500 183 488 136 q 475 89 451 57 q 427 24 392 6 q 356 -11 310 -11 q 291 -11 275 -8 q 259 -4 244 4 q 229 11 215 22 q 200 34 185 49 l 185 -156 q 185 -161 182 -165 q 179 -169 172 -172 q 165 -174 153 -176 q 141 -177 123 -177 q 105 -177 93 -176 q 82 -174 74 -172 q 67 -169 64 -165 q 62 -161 62 -156 l 62 452 q 62 457 64 461 q 66 464 73 467 q 79 469 89 470 q 99 472 114 472 q 128 472 138 470 q 148 469 155 467 q 161 464 163 461 q 166 457 166 452 l 166 401 q 185 420 203 435 q 221 450 240 460 q 259 470 280 475 q 300 480 323 480 q 371 480 404 461 q 438 442 459 410 q 480 377 490 333 q 500 290 500 241 z m 372 232 q 372 260 368 285 q 364 311 354 331 q 344 351 327 363 q 311 375 287 375 q 274 375 262 371 q 250 368 238 359 q 226 351 212 338 q 199 325 185 305 l 185 162 q 210 129 234 111 q 257 93 283 93 q 307 93 323 105 q 340 118 351 137 q 362 157 367 182 q 372 207 372 232 z"},"X":{"x_min":0,"x_max":551,"ha":551,"o":"m 519 48 q 528 31 531 21 q 533 11 527 5 q 521 0 506 -1 q 491 -3 463 -3 q 440 -3 427 -2 q 414 -1 406 1 q 399 3 396 7 q 392 11 390 17 l 271 245 l 153 17 q 150 11 146 7 q 143 3 135 1 q 128 -1 115 -2 q 101 -3 79 -3 q 54 -3 40 -1 q 26 0 21 5 q 16 11 19 21 q 22 31 31 48 l 183 324 l 42 583 q 33 601 30 612 q 27 622 32 627 q 38 632 53 634 q 68 635 96 635 q 119 635 133 634 q 146 633 154 631 q 162 628 165 625 q 168 621 171 615 l 282 406 l 390 615 q 393 621 396 625 q 399 628 406 631 q 413 633 426 634 q 438 635 460 635 q 484 635 499 634 q 513 632 518 627 q 523 622 521 611 q 518 601 510 583 l 369 326 z"},"*":{"x_min":0,"x_max":498,"ha":498,"o":"m 419 458 q 429 455 428 443 q 428 432 414 407 q 399 383 390 377 q 380 371 372 377 l 275 455 l 294 332 q 297 322 286 316 q 275 311 247 311 q 219 311 208 316 q 197 322 200 332 l 219 455 l 122 377 q 115 371 105 377 q 95 383 81 408 q 66 432 66 443 q 65 455 75 458 l 191 503 l 75 548 q 65 552 66 563 q 66 575 81 600 q 95 624 105 630 q 115 637 122 630 l 219 552 l 200 675 q 197 685 208 690 q 219 696 247 696 q 275 696 286 690 q 297 685 294 675 l 275 552 l 372 630 q 380 637 389 630 q 399 624 414 599 q 428 575 428 563 q 429 552 419 548 l 304 503 z"},"Y":{"x_min":0,"x_max":520,"ha":520,"o":"m 324 240 l 324 18 q 324 13 321 9 q 318 5 311 2 q 303 0 291 -1 q 278 -3 260 -3 q 241 -3 229 -1 q 216 0 209 2 q 201 5 198 9 q 195 13 195 18 l 195 240 l 22 584 q 13 602 10 612 q 8 622 13 627 q 19 632 34 634 q 49 635 76 635 q 99 635 112 634 q 125 633 133 630 q 141 627 145 623 q 148 619 152 612 l 222 457 q 232 434 242 409 q 252 384 263 357 l 264 357 q 273 383 283 408 q 292 433 302 456 l 371 610 q 374 618 377 622 q 381 627 388 630 q 396 633 408 634 q 421 635 442 635 q 470 635 485 634 q 500 632 506 627 q 512 622 509 612 q 506 602 497 584 z"},"c":{"x_min":0,"x_max":418,"ha":418,"o":"m 391 86 q 391 73 390 65 q 390 56 388 50 q 387 44 385 41 q 384 37 378 31 q 372 26 358 18 q 344 10 326 3 q 308 -3 286 -7 q 265 -11 243 -11 q 192 -11 154 5 q 115 21 88 51 q 62 82 49 125 q 35 169 35 226 q 35 292 52 339 q 68 387 97 418 q 126 449 167 464 q 207 479 254 479 q 274 479 293 476 q 312 473 328 467 q 344 461 357 454 q 370 446 375 441 q 381 436 383 432 q 385 428 386 422 q 388 417 388 408 q 389 399 389 387 q 389 359 384 347 q 379 336 372 336 q 363 336 354 343 q 345 350 332 358 q 319 366 302 373 q 284 380 260 380 q 212 380 187 343 q 161 306 161 235 q 161 200 167 173 q 174 146 186 128 q 199 110 218 101 q 236 92 261 92 q 287 92 305 99 q 323 107 337 116 q 351 125 360 133 q 369 141 375 141 q 380 141 383 138 q 386 136 387 129 q 389 123 390 112 q 391 102 391 86 z"},"!":{"x_min":0,"x_max":326,"ha":326,"o":"m 235 207 q 234 202 232 198 q 229 194 223 192 q 217 189 207 188 q 196 186 181 186 q 166 186 155 188 q 145 189 139 192 q 133 194 130 198 q 128 202 127 207 l 115 650 q 115 657 118 662 q 121 667 128 670 q 136 673 149 674 q 162 676 181 676 q 201 676 213 674 q 226 672 234 669 q 241 666 244 661 q 248 657 248 650 z m 250 64 q 250 44 247 30 q 244 17 236 8 q 228 0 214 -4 q 201 -7 181 -7 q 161 -7 148 -4 q 134 0 126 8 q 119 17 115 30 q 112 44 112 64 q 112 84 115 98 q 119 112 126 121 q 134 129 148 133 q 161 137 181 137 q 201 137 214 133 q 228 129 236 121 q 244 112 247 98 q 250 84 250 64 z"},"/":{"x_min":0,"x_max":430,"ha":430,"o":"m 123 -126 q 121 -133 117 -137 q 113 -141 106 -143 q 99 -146 88 -147 q 78 -148 62 -148 q 42 -148 29 -146 q 16 -144 10 -140 q 3 -136 2 -130 q 1 -124 4 -116 l 296 704 q 298 710 302 715 q 306 719 312 721 q 319 724 330 725 q 341 726 357 726 q 377 726 390 724 q 402 722 409 718 q 415 714 416 708 q 417 702 415 694 z"},"[":{"x_min":0,"x_max":325,"ha":325,"o":"m 282 -121 q 282 -146 278 -155 q 273 -165 265 -165 l 114 -165 q 106 -165 99 -163 q 92 -160 87 -155 q 83 -150 80 -143 q 77 -135 77 -124 l 77 650 q 77 661 80 668 q 83 676 87 681 q 92 687 99 689 q 106 691 114 691 l 265 691 q 269 691 272 689 q 276 687 278 681 q 280 676 281 668 q 282 660 282 647 q 282 622 278 613 q 273 603 265 603 l 191 603 l 191 -77 l 265 -77 q 269 -77 272 -79 q 276 -81 278 -86 q 280 -92 281 -100 q 282 -108 282 -121 z"},"6":{"x_min":0,"x_max":507,"ha":507,"o":""},"r":{"x_min":0,"x_max":355,"ha":355,"o":"m 341 412 q 341 394 340 383 q 339 372 337 365 q 335 359 332 356 q 329 354 324 354 q 320 354 315 356 q 311 357 304 359 q 298 361 291 363 q 284 365 275 365 q 265 365 254 361 q 244 356 233 348 q 222 339 210 324 q 198 310 185 288 l 185 17 q 185 12 182 8 q 179 4 172 2 q 165 0 153 -2 q 141 -3 123 -3 q 105 -3 93 -2 q 82 0 74 2 q 67 4 64 8 q 62 12 62 17 l 62 452 q 62 457 64 461 q 66 464 73 467 q 79 469 89 470 q 99 472 114 472 q 130 472 140 470 q 150 469 156 467 q 162 464 164 461 q 167 457 167 452 l 167 398 q 184 422 199 438 q 214 454 228 463 q 241 473 255 476 q 269 480 282 480 q 289 480 296 479 q 303 479 311 477 q 319 475 325 473 q 331 471 333 468 q 336 466 337 463 q 338 460 339 455 q 340 450 341 439 q 341 429 341 412 z"},"2":{"x_min":0,"x_max":507,"ha":507,"o":"m 467 52 q 467 38 466 28 q 464 18 462 12 q 459 5 456 3 q 452 0 447 0 l 83 0 q 73 0 65 2 q 57 4 52 10 q 47 15 45 26 q 43 37 43 54 q 43 70 44 81 q 46 93 50 102 q 54 111 60 119 q 66 128 76 138 l 185 255 q 218 290 238 318 q 258 346 269 369 q 280 392 284 412 q 289 431 289 449 q 289 465 283 479 q 278 494 268 504 q 258 515 243 521 q 228 527 208 527 q 179 527 156 520 q 134 513 117 504 q 101 495 89 487 q 78 479 72 479 q 67 479 64 482 q 61 485 59 492 q 57 499 56 510 q 55 522 55 539 q 55 550 55 557 q 56 565 58 571 q 59 576 62 580 q 64 584 70 590 q 76 596 93 605 q 109 614 133 623 q 157 631 186 637 q 214 643 246 643 q 295 643 332 631 q 369 618 393 596 q 417 574 429 543 q 441 513 441 478 q 441 447 436 417 q 430 387 411 353 q 393 318 359 277 q 325 235 270 180 l 196 104 l 445 104 q 450 104 454 101 q 458 98 461 92 q 464 86 465 76 q 467 66 467 52 z"},"{":{"x_min":0,"x_max":344,"ha":344,"o":"m 309 -116 q 309 -129 307 -137 q 306 -145 304 -150 q 301 -155 298 -157 q 294 -160 291 -161 q 279 -164 269 -165 q 259 -166 246 -166 q 208 -166 182 -153 q 157 -141 142 -118 q 126 -95 120 -60 q 114 -24 114 31 l 114 115 q 114 146 110 164 q 106 182 98 196 q 90 210 77 219 q 64 229 45 231 q 41 232 37 235 q 34 238 31 243 q 29 248 28 257 q 26 266 26 278 q 26 292 27 301 q 28 310 31 315 q 33 320 36 323 q 39 325 44 326 q 78 331 96 359 q 114 387 114 442 l 114 505 q 114 561 120 596 q 126 631 142 655 q 157 678 183 690 q 208 702 246 702 q 259 702 269 701 q 279 700 290 697 q 294 697 298 694 q 301 692 304 687 q 306 682 307 674 q 309 665 309 653 q 309 640 307 632 q 306 624 303 618 q 301 613 297 611 q 293 608 289 608 l 271 608 q 259 607 251 603 q 243 599 238 589 q 232 578 230 560 q 228 542 228 505 l 228 444 q 228 407 223 381 q 217 356 205 335 q 193 315 174 300 q 155 285 127 279 q 155 272 174 258 q 193 243 205 222 q 217 202 223 176 q 228 151 228 114 l 228 32 q 228 -5 230 -23 q 232 -41 237 -52 q 242 -62 249 -66 q 256 -71 267 -71 l 285 -71 q 292 -72 296 -74 q 301 -76 304 -81 q 307 -86 308 -95 q 309 -103 309 -116 z"},"9":{"x_min":0,"x_max":507,"ha":507,"o":"m 468 345 q 468 306 464 265 q 460 224 449 184 q 438 145 419 109 q 400 73 369 47 q 339 20 295 4 q 251 -11 192 -11 q 171 -11 150 -8 q 129 -5 112 -1 q 95 3 83 8 q 71 13 66 18 q 61 23 58 33 q 56 43 56 61 q 56 77 56 86 q 57 96 59 102 q 62 107 65 109 q 68 110 72 110 q 78 110 89 107 q 100 104 115 99 q 130 95 150 91 q 169 88 193 88 q 234 88 263 103 q 291 117 309 142 q 326 167 334 200 q 343 232 344 269 q 321 254 290 244 q 258 233 217 233 q 167 233 131 247 q 96 260 74 285 q 52 310 42 345 q 32 381 32 426 q 32 473 46 513 q 61 553 88 582 q 116 611 158 627 q 199 643 254 643 q 298 643 331 633 q 364 623 387 604 q 411 584 427 557 q 443 530 452 497 q 461 464 465 425 q 468 387 468 345 z m 341 362 q 341 415 335 450 q 329 485 317 506 q 306 527 288 536 q 271 544 247 544 q 224 544 208 536 q 191 528 180 514 q 169 499 164 479 q 158 459 158 435 q 158 409 163 389 q 167 370 177 357 q 188 344 204 337 q 220 331 243 331 q 271 331 296 340 q 321 348 341 362 z"}," ":{"x_min":0,"x_max":226,"ha":226,"o":""},"I":{"x_min":0,"x_max":267,"ha":267,"o":"m 198 18 q 198 13 195 9 q 191 5 184 2 q 177 0 165 -1 q 152 -3 133 -3 q 115 -3 102 -1 q 90 0 83 2 q 75 5 72 9 q 69 13 69 18 l 69 614 q 69 619 72 623 q 75 627 83 629 q 90 632 103 633 q 115 635 133 635 q 152 635 165 633 q 177 632 184 629 q 191 627 195 623 q 198 619 198 614 z"},"H":{"x_min":0,"x_max":631,"ha":631,"o":"m 562 18 q 562 13 559 9 q 556 5 548 2 q 541 0 529 -1 q 517 -3 498 -3 q 479 -3 467 -1 q 454 0 447 2 q 440 5 437 9 q 434 13 434 18 l 434 273 l 197 273 l 197 18 q 197 13 194 9 q 191 5 184 2 q 177 0 165 -1 q 152 -3 133 -3 q 115 -3 102 -1 q 90 0 83 2 q 75 5 72 9 q 69 13 69 18 l 69 614 q 69 619 72 623 q 75 627 83 629 q 90 632 102 633 q 115 635 133 635 q 152 635 165 633 q 177 632 184 629 q 191 627 194 623 q 197 619 197 614 l 197 382 l 434 382 l 434 614 q 434 619 437 623 q 440 627 447 629 q 454 632 467 633 q 479 635 498 635 q 517 635 529 633 q 541 632 548 629 q 556 627 559 623 q 562 619 562 614 z"},"4":{"x_min":0,"x_max":507,"ha":507,"o":"m 486 182 q 486 157 481 144 q 476 131 467 131 l 411 131 l 411 17 q 411 12 408 8 q 405 4 398 2 q 391 0 379 -2 q 367 -3 349 -3 q 331 -3 319 -2 q 307 0 300 2 q 293 4 290 8 q 288 12 288 17 l 288 131 l 46 131 q 39 131 34 133 q 28 134 25 140 q 21 146 19 158 q 18 169 18 188 q 18 204 18 216 q 19 227 21 236 q 22 246 26 254 q 29 262 34 271 l 230 618 q 232 622 238 625 q 244 628 255 631 q 265 633 281 634 q 297 635 320 635 q 345 635 363 634 q 380 632 391 630 q 401 627 406 623 q 411 619 411 614 l 411 233 l 467 233 q 475 233 481 221 q 486 209 486 182 z m 288 524 l 287 524 l 120 233 l 288 233 z"},"~":{"x_min":0,"x_max":498,"ha":498,"o":"m 472 522 q 471 484 460 455 q 449 426 431 407 q 413 389 389 379 q 365 370 339 370 q 318 370 302 374 q 286 378 273 385 q 261 391 251 400 q 241 409 231 419 q 221 429 213 438 q 205 448 198 455 q 190 461 182 465 q 174 469 164 469 q 151 469 143 464 q 134 458 128 449 q 123 439 120 427 q 118 414 118 398 q 118 389 107 385 q 96 381 73 381 q 60 381 51 382 q 42 383 37 386 q 32 389 30 393 q 28 396 28 401 l 28 415 q 28 454 38 483 q 48 512 66 531 q 83 551 108 560 q 132 569 160 569 q 181 569 197 566 q 213 562 226 555 q 239 549 249 540 q 259 532 269 521 q 279 511 287 502 q 294 493 302 486 q 309 479 317 475 q 325 471 336 471 q 348 471 356 476 q 365 481 371 491 q 376 500 379 513 q 382 526 382 543 q 382 552 394 555 q 405 559 426 559 q 440 559 449 558 q 458 557 463 554 q 468 551 470 547 q 472 543 472 538 z"},"D":{"x_min":0,"x_max":630,"ha":630,"o":"m 594 325 q 594 238 571 177 q 548 115 506 76 q 463 37 403 18 q 342 0 258 0 l 107 0 q 91 0 80 10 q 69 19 69 41 l 69 591 q 69 613 80 622 q 91 632 107 632 l 269 632 q 354 632 412 612 q 471 592 511 553 q 552 515 573 458 q 594 400 594 325 z m 461 321 q 461 366 450 404 q 440 443 417 471 q 394 500 357 515 q 321 531 262 531 l 197 531 l 197 102 l 264 102 q 316 102 353 115 q 389 129 413 156 q 437 184 449 225 q 461 266 461 321 z"},"^":{"x_min":0,"x_max":498,"ha":498,"o":"m 473 291 q 479 277 480 269 q 482 261 477 256 q 472 252 459 251 q 447 250 425 250 q 406 250 394 251 q 381 252 373 255 q 365 257 361 261 q 357 266 354 271 l 247 536 l 244 535 l 141 271 q 138 266 134 261 q 130 257 122 255 q 114 252 102 251 q 89 250 70 250 q 49 250 37 251 q 25 252 20 256 q 15 261 16 269 q 18 277 24 291 l 165 611 q 167 618 173 622 q 179 627 189 630 q 199 633 213 635 q 228 637 247 637 q 267 637 281 635 q 295 633 305 630 q 315 627 321 622 q 327 618 330 611 z"},"0":{"x_min":0,"x_max":507,"ha":507,"o":"m 479 318 q 479 243 467 182 q 455 121 427 78 q 400 35 356 12 q 312 -11 248 -11 q 183 -11 140 11 q 98 33 73 75 q 48 117 38 177 q 28 237 28 313 q 28 389 40 450 q 53 511 80 554 q 108 597 152 620 q 196 643 260 643 q 325 643 367 621 q 410 599 435 557 q 460 515 470 455 q 479 395 479 318 z m 350 312 q 350 357 348 391 q 345 426 340 451 q 335 477 327 494 q 320 512 309 522 q 298 533 285 537 q 271 542 254 542 q 226 542 207 528 q 188 514 177 486 q 166 458 162 417 q 157 375 157 320 q 157 252 163 208 q 168 164 179 138 q 191 112 209 101 q 227 91 252 91 q 271 91 286 97 q 301 103 312 115 q 323 127 330 146 q 337 165 342 189 q 347 213 348 244 q 350 275 350 312 z"},"F":{"x_min":0,"x_max":459,"ha":459,"o":"m 423 579 q 423 564 422 554 q 421 544 418 539 q 416 533 412 530 q 409 527 404 527 l 198 527 l 198 357 l 392 357 q 396 357 399 354 q 403 352 406 346 q 408 340 409 331 q 411 321 411 306 q 411 292 409 282 q 408 272 406 266 q 403 259 399 257 q 396 254 392 254 l 198 254 l 198 19 q 198 13 195 9 q 192 5 184 3 q 177 0 165 -1 q 152 -3 133 -3 q 115 -3 102 -1 q 90 0 83 3 q 75 5 72 9 q 69 13 69 19 l 69 591 q 69 613 80 622 q 91 632 107 632 l 404 632 q 409 632 412 629 q 416 626 418 620 q 421 614 422 604 q 423 594 423 579 z"},"`":{"x_min":0,"x_max":300,"ha":300,"o":"m 245 554 q 250 548 250 543 q 251 538 247 535 q 243 532 234 530 q 224 529 207 529 q 193 529 184 530 q 174 531 168 533 q 162 535 157 538 q 153 541 149 546 l 55 659 q 50 665 50 669 q 49 674 55 678 q 61 682 74 684 q 87 686 109 686 q 125 686 136 685 q 147 684 155 681 q 162 679 167 675 q 171 671 175 666 z m 0 469 z"},"k":{"x_min":0,"x_max":480,"ha":480,"o":"m 466 16 q 466 11 464 8 q 461 4 454 2 q 447 0 435 -2 q 422 -3 403 -3 q 383 -3 370 -2 q 358 -1 350 1 q 342 3 337 7 q 333 11 330 18 l 185 247 l 185 17 q 185 12 182 8 q 179 4 172 2 q 165 0 153 -2 q 141 -3 123 -3 q 105 -3 93 -2 q 82 0 74 2 q 67 4 64 8 q 62 12 62 17 l 62 659 q 62 664 64 667 q 67 671 74 674 q 82 677 93 678 q 105 680 123 680 q 141 680 153 678 q 165 677 172 674 q 179 671 182 667 q 185 664 185 659 l 185 276 l 313 450 q 317 456 322 460 q 327 464 335 467 q 343 469 355 470 q 367 472 386 472 q 404 472 416 470 q 429 469 436 467 q 444 464 447 461 q 450 457 450 452 q 450 444 446 436 q 442 428 435 418 l 308 274 l 455 46 q 461 36 464 29 q 466 22 466 16 z"},"u":{"x_min":0,"x_max":537,"ha":537,"o":"m 475 17 q 475 12 472 8 q 470 4 464 2 q 458 0 448 -2 q 438 -3 422 -3 q 406 -3 396 -2 q 386 0 380 2 q 375 4 372 8 q 370 12 370 17 l 370 67 q 333 28 296 8 q 259 -11 219 -11 q 174 -11 143 3 q 113 18 94 43 q 75 69 67 102 q 59 136 59 186 l 59 452 q 59 457 62 461 q 64 464 72 467 q 79 469 91 470 q 103 472 120 472 q 138 472 150 470 q 162 469 169 467 q 176 464 179 461 q 182 457 182 452 l 182 206 q 182 172 186 154 q 190 136 199 123 q 208 110 222 103 q 236 96 255 96 q 278 96 302 113 q 326 130 353 163 l 353 452 q 353 457 355 461 q 358 464 365 467 q 372 469 384 470 q 396 472 414 472 q 432 472 443 470 q 455 469 462 467 q 469 464 472 461 q 475 457 475 452 z"},"]":{"x_min":0,"x_max":325,"ha":325,"o":"m 249 -124 q 249 -135 246 -143 q 243 -150 238 -155 q 233 -160 226 -163 q 219 -165 211 -165 l 60 -165 q 51 -165 47 -155 q 42 -146 42 -121 q 42 -108 44 -100 q 45 -92 47 -86 q 49 -81 52 -79 q 56 -77 60 -77 l 134 -77 l 134 603 l 60 603 q 51 603 47 613 q 42 622 42 647 q 42 660 44 668 q 45 676 47 681 q 49 687 52 689 q 56 691 60 691 l 211 691 q 219 691 226 689 q 233 687 238 681 q 243 676 246 668 q 249 661 249 650 z"},"U":{"x_min":0,"x_max":653,"ha":653,"o":"m 584 235 q 584 177 567 131 q 550 85 517 54 q 484 22 435 5 q 386 -11 323 -11 q 263 -11 216 4 q 168 19 136 49 q 103 79 86 124 q 68 169 68 230 l 68 614 q 68 619 71 623 q 74 627 82 629 q 89 632 102 633 q 114 635 133 635 q 151 635 164 633 q 176 632 183 629 q 190 627 194 623 q 197 619 197 614 l 197 241 q 197 204 206 176 q 215 148 233 130 q 250 112 274 103 q 298 94 328 94 q 358 94 382 104 q 406 113 423 131 q 439 148 448 175 q 458 201 458 234 l 458 614 q 458 619 460 623 q 463 627 471 629 q 478 632 490 633 q 503 635 521 635 q 540 635 552 633 q 564 632 571 629 q 579 627 582 623 q 584 619 584 614 z"},"o":{"x_min":0,"x_max":538,"ha":538,"o":"m 502 239 q 502 183 487 137 q 473 91 443 58 q 413 25 368 7 q 323 -11 263 -11 q 205 -11 162 5 q 119 21 91 52 q 62 83 49 127 q 35 172 35 230 q 35 286 50 332 q 65 378 95 411 q 125 444 169 462 q 214 480 274 480 q 333 480 375 464 q 418 448 447 417 q 475 387 488 342 q 502 297 502 239 z m 375 234 q 375 266 370 293 q 365 320 353 340 q 341 360 321 372 q 300 383 270 383 q 242 383 222 373 q 201 363 188 344 q 175 324 168 297 q 162 270 162 235 q 162 203 167 176 q 172 149 184 129 q 196 109 217 98 q 237 87 268 87 q 295 87 316 97 q 336 107 350 126 q 363 145 369 172 q 375 199 375 234 z"},"N":{"x_min":0,"x_max":659,"ha":659,"o":"m 590 45 q 590 34 586 25 q 582 16 575 10 q 569 4 560 2 q 551 -1 542 -1 l 487 -1 q 470 -1 457 2 q 445 6 434 15 q 424 24 414 39 q 404 55 392 79 l 235 375 q 221 401 207 431 q 193 462 182 491 l 181 491 q 183 456 184 421 q 185 386 185 349 l 185 18 q 185 13 182 9 q 179 5 173 3 q 166 0 155 -1 q 144 -3 126 -3 q 109 -3 98 -1 q 86 0 80 3 q 74 5 71 9 q 69 13 69 18 l 69 586 q 69 609 82 620 q 96 632 115 632 l 184 632 q 203 632 215 629 q 228 625 238 618 q 248 611 257 598 q 266 585 275 566 l 398 335 q 409 314 419 294 q 430 273 439 253 q 449 233 458 213 q 468 194 477 174 l 477 174 q 476 208 475 246 q 474 283 474 316 l 474 613 q 474 618 477 622 q 480 625 487 628 q 494 631 505 633 q 516 634 534 634 q 550 634 562 633 q 573 631 579 628 q 585 625 587 622 q 590 618 590 613 z"},"+":{"x_min":0,"x_max":498,"ha":498,"o":"m 473 281 q 473 267 471 258 q 470 249 467 243 q 464 237 460 235 q 456 232 452 232 l 300 232 l 300 67 q 300 62 297 58 q 295 55 289 52 q 283 49 273 48 q 264 46 249 46 q 234 46 225 48 q 215 49 209 52 q 203 55 200 58 q 198 62 198 67 l 198 232 l 46 232 q 42 232 38 235 q 35 237 32 243 q 29 249 27 258 q 25 267 25 281 q 25 294 27 303 q 28 313 31 319 q 34 324 37 327 q 41 329 45 329 l 198 329 l 198 494 q 198 499 200 503 q 203 507 209 510 q 215 513 225 514 q 234 516 249 516 q 264 516 273 514 q 283 513 289 510 q 295 507 297 503 q 300 499 300 494 l 300 329 l 453 329 q 457 329 461 327 q 464 324 467 319 q 470 313 471 303 q 473 294 473 281 z"},"G":{"x_min":0,"x_max":637,"ha":637,"o":"m 576 534 q 576 520 574 509 q 573 499 571 493 q 569 487 566 484 q 562 482 558 482 q 552 482 538 491 q 523 500 500 510 q 477 520 444 529 q 412 538 369 538 q 323 538 286 522 q 249 506 222 477 q 196 448 182 407 q 167 366 167 317 q 167 263 182 221 q 196 180 222 152 q 248 125 284 110 q 321 96 365 96 q 386 96 407 101 q 428 106 446 116 l 446 262 l 327 262 q 318 262 313 273 q 308 284 308 311 q 308 324 309 333 q 311 343 313 348 q 315 354 319 357 q 322 359 327 359 l 540 359 q 548 359 554 357 q 560 354 565 349 q 569 343 572 336 q 574 328 574 318 l 574 67 q 574 52 569 41 q 564 30 548 24 q 532 18 509 11 q 485 4 460 -1 q 435 -6 409 -8 q 384 -11 358 -11 q 282 -11 222 11 q 163 33 121 74 q 80 115 58 175 q 36 234 36 309 q 36 387 59 448 q 83 510 125 553 q 168 597 229 620 q 290 643 365 643 q 406 643 439 637 q 473 631 498 623 q 523 615 540 606 q 557 597 563 590 q 570 583 573 571 q 576 558 576 534 z"},"q":{"x_min":0,"x_max":537,"ha":537,"o":"m 475 -156 q 475 -161 472 -165 q 469 -169 462 -172 q 455 -174 443 -176 q 432 -177 414 -177 q 396 -177 384 -176 q 372 -174 365 -172 q 358 -169 355 -165 q 353 -161 353 -156 l 353 51 q 335 35 318 23 q 302 11 285 3 q 269 -4 251 -8 q 233 -11 214 -11 q 166 -11 132 8 q 99 27 77 60 q 56 93 46 136 q 37 180 37 229 q 37 287 49 333 q 62 379 86 412 q 111 445 146 462 q 182 480 229 480 q 247 480 264 476 q 280 473 297 464 q 313 455 331 440 q 349 426 371 405 l 371 452 q 371 457 373 461 q 376 464 382 467 q 388 469 398 470 q 408 472 423 472 q 438 472 448 470 q 458 469 464 467 q 470 464 472 461 q 475 457 475 452 z m 353 308 q 326 341 302 358 q 278 376 251 376 q 228 376 210 364 q 193 352 182 332 q 172 312 167 287 q 162 263 162 237 q 162 209 166 183 q 170 157 180 137 q 190 117 207 105 q 224 93 249 93 q 262 93 274 96 q 286 100 298 108 q 311 117 324 130 q 337 144 353 163 z"},"d":{"x_min":0,"x_max":537,"ha":537,"o":"m 475 17 q 475 11 472 8 q 470 4 464 1 q 458 -1 448 -2 q 438 -3 423 -3 q 408 -3 398 -2 q 388 -1 382 1 q 376 4 373 8 q 371 11 371 17 l 371 65 q 337 29 300 9 q 263 -11 218 -11 q 168 -11 134 8 q 100 27 78 60 q 56 93 46 136 q 37 180 37 229 q 37 287 49 333 q 62 379 85 412 q 109 445 145 462 q 181 480 227 480 q 264 480 293 465 q 323 450 353 421 l 353 657 q 353 662 355 666 q 358 670 365 673 q 372 675 384 677 q 396 678 414 678 q 432 678 443 677 q 455 675 462 673 q 469 670 472 666 q 475 662 475 657 z m 353 308 q 326 341 302 358 q 278 376 251 376 q 228 376 210 364 q 193 352 182 332 q 172 312 167 287 q 162 263 162 237 q 162 209 166 184 q 170 158 180 137 q 190 117 207 105 q 224 93 249 93 q 262 93 274 96 q 286 100 298 108 q 311 117 324 130 q 337 144 353 163 z"},"1":{"x_min":0,"x_max":507,"ha":507,"o":"m 461 49 q 461 35 459 26 q 458 16 455 10 q 453 5 449 2 q 446 0 441 0 l 93 0 q 89 0 85 2 q 82 5 79 10 q 77 16 75 26 q 74 35 74 49 q 74 63 75 73 q 76 82 79 88 q 82 94 85 96 q 88 99 93 99 l 210 99 l 210 510 l 109 454 q 98 449 91 448 q 83 446 79 450 q 75 455 74 465 q 72 475 72 494 q 72 505 73 513 q 73 521 75 526 q 77 531 81 535 q 84 538 90 542 l 226 630 q 228 632 232 633 q 235 634 241 635 q 247 636 257 636 q 266 636 281 636 q 300 636 311 635 q 323 635 329 633 q 334 631 336 628 q 338 625 338 621 l 338 99 l 441 99 q 446 99 449 96 q 453 94 456 88 q 458 82 460 73 q 461 63 461 49 z"},"5":{"x_min":0,"x_max":507,"ha":507,"o":"m 461 205 q 461 154 443 114 q 425 73 393 46 q 360 18 315 3 q 269 -11 213 -11 q 184 -11 158 -8 q 131 -4 110 2 q 89 7 76 13 q 62 19 58 22 q 54 26 52 30 q 50 35 49 41 q 48 47 47 56 q 47 65 47 78 q 47 92 48 101 q 49 111 51 117 q 53 123 56 125 q 59 127 63 127 q 68 127 78 122 q 88 116 104 109 q 121 103 144 97 q 167 91 200 91 q 229 91 252 97 q 275 103 291 116 q 307 129 316 148 q 325 168 325 195 q 325 219 317 237 q 310 255 294 268 q 279 281 254 287 q 229 293 193 293 q 165 293 142 291 q 119 288 98 288 q 84 288 78 295 q 72 302 72 321 l 72 595 q 72 615 79 623 q 87 632 104 632 l 403 632 q 407 632 411 629 q 415 626 418 620 q 420 613 422 603 q 423 592 423 578 q 423 548 418 535 q 413 522 403 522 l 178 522 l 178 387 q 195 389 212 389 q 229 390 248 390 q 299 390 339 378 q 378 366 406 343 q 433 319 447 285 q 461 250 461 205 z"}}}
